<svg xmlns="http://www.w3.org/2000/svg" viewBox="0 0 32 32" width="32" height="32"><svg xmlns="http://www.w3.org/2000/svg" viewBox="0 0 32 32">

  <defs>  <defs>

    <linearGradient id="gradient" x1="0%" y1="0%" x2="100%" y2="100%">    <linearGradient id="gradient" x1="0%" y1="0%" x2="100%" y2="100%">

      <stop offset="0%" style="stop-color:#667eea;stop-opacity:1" />      <stop offset="0%" style="stop-color:#6366f1;stop-opacity:1" />

      <stop offset="100%" style="stop-color:#764ba2;stop-opacity:1" />      <stop offset="100%" style="stop-color:#8b5cf6;stop-opacity:1" />

    </linearGradient>    </linearGradient>

  </defs>  </defs>

    

  <!-- Background circle -->  <!-- Background circle -->

  <circle cx="16" cy="16" r="15" fill="url(#gradient)" stroke="#ffffff" stroke-width="1"/>  <circle cx="16" cy="16" r="14" fill="url(#gradient)" stroke="#4f46e5" stroke-width="1"/>

    

  <!-- Blog/Document icon -->  <!-- Book/Blog icon -->

  <rect x="8" y="6" width="16" height="20" rx="2" fill="white" opacity="0.95"/>  <rect x="8" y="8" width="16" height="14" rx="2" fill="white" opacity="0.9"/>

    <rect x="10" y="10" width="12" height="1" fill="#6366f1" opacity="0.8"/>

  <!-- Text lines representing blog content -->  <rect x="10" y="13" width="10" height="1" fill="#6366f1" opacity="0.6"/>

  <rect x="10" y="9" width="12" height="1.5" fill="#667eea" opacity="0.8"/>  <rect x="10" y="16" width="8" height="1" fill="#6366f1" opacity="0.6"/>

  <rect x="10" y="12" width="10" height="1.5" fill="#667eea" opacity="0.6"/>  <rect x="10" y="19" width="6" height="1" fill="#6366f1" opacity="0.6"/>

  <rect x="10" y="15" width="11" height="1.5" fill="#667eea" opacity="0.6"/>  

  <rect x="10" y="18" width="8" height="1.5" fill="#667eea" opacity="0.4"/>  <!-- Pen tip -->

    <circle cx="22" cy="10" r="2" fill="#f59e0b" opacity="0.9"/>

  <!-- Small pen/edit icon --></svg>

  <circle cx="20" cy="21" r="2.5" fill="#764ba2"/>
  <rect x="19" y="19" width="2" height="1" fill="white" opacity="0.9"/>
</svg>